<svg xmlns="http://www.w3.org/2000/svg" width="1172" height="618" viewBox="0 0 1172 618" role="img" aria-label="Moujan Mirjalili's GitHub profile" xmlns:c2pa="http://c2pa.org/manifest"><metadata><c2pa:manifest>AAAWgmp1bWIAAAAeanVtZGMycGEAEQAQgAAAqgA4m3EDYzJwYQAAABZcanVtYgAAAEdqdW1kYzJtYQARABCAAACqADibcQN1cm46YzJwYTo0ZGYzMGJlMS05YWMxLTRiYjAtOWZkNS02ODVjMjFkMWM2ZjEAAAADl2p1bWIAAAApanVtZGMyYXMAEQAQgAAAqgA4m3EDYzJwYS5hc3NlcnRpb25zAAAAALxqdW1iAAAARGp1bWRjYm9yABEAEIAAAKoAOJtxE2MycGEuaW5ncmVkaWVudC52MwAAAAAYYzJzaCw0MNY3jdvr/ddUYZhaUucAAABwY2JvcqNpZGM6Zm9ybWF0bWltYWdlL3N2Zyt4bWxqaW5zdGFuY2VJRHgseG1wOmlpZDowMzE0YTIzYi05YjBkLTRlYmYtOWQwMS00NzNiZDIzN2VmYjJscmVsYXRpb25zaGlwaHBhcmVudE9mAAAB4mp1bWIAAABBanVtZGNib3IAEQAQgAAAqgA4m3ETYzJwYS5hY3Rpb25zLnYyAAAAABhjMnNo6FP5gIgg+Os6jtLBvz/4+gAAAZljYm9yomdhY3Rpb25zgqJmYWN0aW9ua2MycGEub3BlbmVkanBhcmFtZXRlcnOha2luZ3JlZGllbnRzgaJjdXJseC1zZWxmI2p1bWJmPWMycGEuYXNzZXJ0aW9ucy9jMnBhLmluZ3JlZGllbnQudjNkaGFzaFggZPeHt79sNuktgn9uq3P6OhzPrYx+UziLmvDU+Htw82ykZmFjdGlvbngdY29tLmFudGhyb3BpYy5jbGF1ZGUucHJvdmlkZWRqcGFyYW1ldGVyc6F4H2NvbS5hbnRocm9waWMub3JpZ2luLWNvbmZpZGVuY2VndW5rbm93bmtkZXNjcmlwdGlvbnhmQ2xhdWRlIHByb3ZpZGVkIHRoaXMgZmlsZSBhdCB0aGUgcmVxdWVzdCBvZiBhIHVzZXIgYW5kIG1heSBoYXZlIGNyZWF0ZWQgb3IgbW9kaWZpZWQgdGhlIGZpbGUgY29udGVudHMubXNvZnR3YXJlQWdlbnShZG5hbWVmQ2xhdWRlcmFsbEFjdGlvbnNJbmNsdWRlZPUAAADIanVtYgAAAEBqdW1kY2JvcgARABCAAACqADibcRNjMnBhLmhhc2guZGF0YQAAAAAYYzJzaP+dxUOltTRtrb0hBEzdyAkAAACAY2JvcqVjYWxnZnNoYTI1NmNwYWRNAAAAAAAAAAAAAAAAAGRoYXNoWCD2LnNuevSEJ/hqfTXeBfZmLWrULyMTTO2D0TOs6urAGWRuYW1lbmp1bWJmIG1hbmlmZXN0amV4Y2x1c2lvbnOBomVzdGFydBjSZmxlbmd0aBkeBAAAAj5qdW1iAAAAJ2p1bWRjMmNsABEAEIAAAKoAOJtxA2MycGEuY2xhaW0udjIAAAACD2Nib3KlY2FsZ2ZzaGEyNTZpc2lnbmF0dXJleE1zZWxmI2p1bWJmPS9jMnBhL3VybjpjMnBhOjRkZjMwYmUxLTlhYzEtNGJiMC05ZmQ1LTY4NWMyMWQxYzZmMS9jMnBhLnNpZ25hdHVyZWppbnN0YW5jZUlEeCx4bXA6aWlkOjBhMjM5ODVhLTZjNWYtNDEyNC1iNDRmLTUzNzU0YTkwNDEyZnJjcmVhdGVkX2Fzc2VydGlvbnODomN1cmx4LXNlbGYjanVtYmY9YzJwYS5hc3NlcnRpb25zL2MycGEuaW5ncmVkaWVudC52M2RoYXNoWCBk94e3v2w26S2Cf26rc/o6HM+tjH5TOIua8NT4e3DzbKJjdXJseCpzZWxmI2p1bWJmPWMycGEuYXNzZXJ0aW9ucy9jMnBhLmFjdGlvbnMudjJkaGFzaFggsvp65ImpG6bWo/X9XszkEcXbOZvN0eRvyEIkb+3SCB+iY3VybHgpc2VsZiNqdW1iZj1jMnBhLmFzc2VydGlvbnMvYzJwYS5oYXNoLmRhdGFkaGFzaFggmYoj4HM7C55si8qOFGN4G5N5AnIX4khIFQAxwrV3vi10Y2xhaW1fZ2VuZXJhdG9yX2luZm+jZG5hbWVvQW50aHJvcGljIEZpbGVzZ3ZlcnNpb25lMS4wLjBrc3BlY1ZlcnNpb25lMi40LjAAABA4anVtYgAAAChqdW1kYzJjcwARABCAAACqADibcQNjMnBhLnNpZ25hdHVyZQAAABAIY2JvctKEWQISogEmGCFZAgowggIGMIIBjaADAgECAhRA5aAK7sI50L64g/oGQgU9Z1UTADAKBggqhkjOPQQDAzBJMRcwFQYDVQQKEw5BbnRocm9waWMsIFBCQzEuMCwGA1UEAxMlQW50aHJvcGljIENvbnRlbnQgQ3JlZGVudGlhbHMgUm9vdCBDQTAeFw0yNjA4MDcxODQzNTZaFw0yODA4MDYxOTQzNTZaMEQxFzAVBgNVBAoTDkFudGhyb3BpYywgUEJDMSkwJwYDVQQDEyBBbnRocm9waWMgQ2xhdWRlIENvbnRlbnQgU2lnbmluZzBZMBMGByqGSM49AgEGCCqGSM49AwEHA0IABJh6CmvLUBgFFNU0vUKlOVtE6djd17L5SuwX0LemFisBM3dkd/3cyjxFA3Qo5S46fX0/ihY0VZ7mfb9KF703t5OjWDBWMA4GA1UdDwEB/wQEAwIHgDAVBgNVHSUEDjAMBgorBgEEAYPoXgIBMAwGA1UdEwEB/wQCMAAwHwYDVR0jBBgwFoAUzlHiBIFOZFsj+OPEz5o+nMHXXMIwCgYIKoZIzj0EAwMDZwAwZAIwMXMdFJ4BetLLVY7ORuE9noqbbAZOZn/aArXyTwFAZfKrPzxF2vPoJNf1+UCdg1XGAjBwX1zd9WGqYkqmL5SFqw1QySjr1zJfpJM9+1rdDwSPLMOPOjKuiXjoU/pUUeG9RwmhY3BhZFkNngAAAAAAAAAAAAAAAAAAAAAAAAAAAAAAAAAAAAAAAAAAAAAAAAAAAAAAAAAAAAAAAAAAAAAAAAAAAAAAAAAAAAAAAAAAAAAAAAAAAAAAAAAAAAAAAAAAAAAAAAAAAAAAAAAAAAAAAAAAAAAAAAAAAAAAAAAAAAAAAAAAAAAAAAAAAAAAAAAAAAAAAAAAAAAAAAAAAAAAAAAAAAAAAAAAAAAAAAAAAAAAAAAAAAAAAAAAAAAAAAAAAAAAAAAAAAAAAAAAAAAAAAAAAAAAAAAAAAAAAAAAAAAAAAAAAAAAAAAAAAAAAAAAAAAAAAAAAAAAAAAAAAAAAAAAAAAAAAAAAAAAAAAAAAAAAAAAAAAAAAAAAAAAAAAAAAAAAAAAAAAAAAAAAAAAAAAAAAAAAAAAAAAAAAAAAAAAAAAAAAAAAAAAAAAAAAAAAAAAAAAAAAAAAAAAAAAAAAAAAAAAAAAAAAAAAAAAAAAAAAAAAAAAAAAAAAAAAAAAAAAAAAAAAAAAAAAAAAAAAAAAAAAAAAAAAAAAAAAAAAAAAAAAAAAAAAAAAAAAAAAAAAAAAAAAAAAAAAAAAAAAAAAAAAAAAAAAAAAAAAAAAAAAAAAAAAAAAAAAAAAAAAAAAAAAAAAAAAAAAAAAAAAAAAAAAAAAAAAAAAAAAAAAAAAAAAAAAAAAAAAAAAAAAAAAAAAAAAAAAAAAAAAAAAAAAAAAAAAAAAAAAAAAAAAAAAAAAAAAAAAAAAAAAAAAAAAAAAAAAAAAAAAAAAAAAAAAAAAAAAAAAAAAAAAAAAAAAAAAAAAAAAAAAAAAAAAAAAAAAAAAAAAAAAAAAAAAAAAAAAAAAAAAAAAAAAAAAAAAAAAAAAAAAAAAAAAAAAAAAAAAAAAAAAAAAAAAAAAAAAAAAAAAAAAAAAAAAAAAAAAAAAAAAAAAAAAAAAAAAAAAAAAAAAAAAAAAAAAAAAAAAAAAAAAAAAAAAAAAAAAAAAAAAAAAAAAAAAAAAAAAAAAAAAAAAAAAAAAAAAAAAAAAAAAAAAAAAAAAAAAAAAAAAAAAAAAAAAAAAAAAAAAAAAAAAAAAAAAAAAAAAAAAAAAAAAAAAAAAAAAAAAAAAAAAAAAAAAAAAAAAAAAAAAAAAAAAAAAAAAAAAAAAAAAAAAAAAAAAAAAAAAAAAAAAAAAAAAAAAAAAAAAAAAAAAAAAAAAAAAAAAAAAAAAAAAAAAAAAAAAAAAAAAAAAAAAAAAAAAAAAAAAAAAAAAAAAAAAAAAAAAAAAAAAAAAAAAAAAAAAAAAAAAAAAAAAAAAAAAAAAAAAAAAAAAAAAAAAAAAAAAAAAAAAAAAAAAAAAAAAAAAAAAAAAAAAAAAAAAAAAAAAAAAAAAAAAAAAAAAAAAAAAAAAAAAAAAAAAAAAAAAAAAAAAAAAAAAAAAAAAAAAAAAAAAAAAAAAAAAAAAAAAAAAAAAAAAAAAAAAAAAAAAAAAAAAAAAAAAAAAAAAAAAAAAAAAAAAAAAAAAAAAAAAAAAAAAAAAAAAAAAAAAAAAAAAAAAAAAAAAAAAAAAAAAAAAAAAAAAAAAAAAAAAAAAAAAAAAAAAAAAAAAAAAAAAAAAAAAAAAAAAAAAAAAAAAAAAAAAAAAAAAAAAAAAAAAAAAAAAAAAAAAAAAAAAAAAAAAAAAAAAAAAAAAAAAAAAAAAAAAAAAAAAAAAAAAAAAAAAAAAAAAAAAAAAAAAAAAAAAAAAAAAAAAAAAAAAAAAAAAAAAAAAAAAAAAAAAAAAAAAAAAAAAAAAAAAAAAAAAAAAAAAAAAAAAAAAAAAAAAAAAAAAAAAAAAAAAAAAAAAAAAAAAAAAAAAAAAAAAAAAAAAAAAAAAAAAAAAAAAAAAAAAAAAAAAAAAAAAAAAAAAAAAAAAAAAAAAAAAAAAAAAAAAAAAAAAAAAAAAAAAAAAAAAAAAAAAAAAAAAAAAAAAAAAAAAAAAAAAAAAAAAAAAAAAAAAAAAAAAAAAAAAAAAAAAAAAAAAAAAAAAAAAAAAAAAAAAAAAAAAAAAAAAAAAAAAAAAAAAAAAAAAAAAAAAAAAAAAAAAAAAAAAAAAAAAAAAAAAAAAAAAAAAAAAAAAAAAAAAAAAAAAAAAAAAAAAAAAAAAAAAAAAAAAAAAAAAAAAAAAAAAAAAAAAAAAAAAAAAAAAAAAAAAAAAAAAAAAAAAAAAAAAAAAAAAAAAAAAAAAAAAAAAAAAAAAAAAAAAAAAAAAAAAAAAAAAAAAAAAAAAAAAAAAAAAAAAAAAAAAAAAAAAAAAAAAAAAAAAAAAAAAAAAAAAAAAAAAAAAAAAAAAAAAAAAAAAAAAAAAAAAAAAAAAAAAAAAAAAAAAAAAAAAAAAAAAAAAAAAAAAAAAAAAAAAAAAAAAAAAAAAAAAAAAAAAAAAAAAAAAAAAAAAAAAAAAAAAAAAAAAAAAAAAAAAAAAAAAAAAAAAAAAAAAAAAAAAAAAAAAAAAAAAAAAAAAAAAAAAAAAAAAAAAAAAAAAAAAAAAAAAAAAAAAAAAAAAAAAAAAAAAAAAAAAAAAAAAAAAAAAAAAAAAAAAAAAAAAAAAAAAAAAAAAAAAAAAAAAAAAAAAAAAAAAAAAAAAAAAAAAAAAAAAAAAAAAAAAAAAAAAAAAAAAAAAAAAAAAAAAAAAAAAAAAAAAAAAAAAAAAAAAAAAAAAAAAAAAAAAAAAAAAAAAAAAAAAAAAAAAAAAAAAAAAAAAAAAAAAAAAAAAAAAAAAAAAAAAAAAAAAAAAAAAAAAAAAAAAAAAAAAAAAAAAAAAAAAAAAAAAAAAAAAAAAAAAAAAAAAAAAAAAAAAAAAAAAAAAAAAAAAAAAAAAAAAAAAAAAAAAAAAAAAAAAAAAAAAAAAAAAAAAAAAAAAAAAAAAAAAAAAAAAAAAAAAAAAAAAAAAAAAAAAAAAAAAAAAAAAAAAAAAAAAAAAAAAAAAAAAAAAAAAAAAAAAAAAAAAAAAAAAAAAAAAAAAAAAAAAAAAAAAAAAAAAAAAAAAAAAAAAAAAAAAAAAAAAAAAAAAAAAAAAAAAAAAAAAAAAAAAAAAAAAAAAAAAAAAAAAAAAAAAAAAAAAAAAAAAAAAAAAAAAAAAAAAAAAAAAAAAAAAAAAAAAAAAAAAAAAAAAAAAAAAAAAAAAAAAAAAAAAAAAAAAAAAAAAAAAAAAAAAAAAAAAAAAAAAAAAAAAAAAAAAAAAAAAAAAAAAAAAAAAAAAAAAAAAAAAAAAAAAAAAAAAAAAAAAAAAAAAAAAAAAAAAAAAAAAAAAAAAAAAAAAAAAAAAAAAAAAAAAAAAAAAAAAAAAAAAAAAAAAAAAAAAAAAAAAAAAAAAAAAAAAAAAAAAAAAAAAAAAAAAAAAAAAAAAAAAAAAAAAAAAAAAAAAAAAAAAAAAAAAAAAAAAAAAAAAAAAAAAAAAAAAAAAAAAAAAAAAAAAAAAAAAAAAAAAAAAAAAAAAAAAAAAAAAAAAAAAAAAAAAAAAAAAAAAAAAAAAAAAAAAAAAAAAAAAAAAAAAAAAAAAAAAAAAAAAAAAAAAAAAAAAAAAAAAAAAAAAAAAAAAAAAAAAAAAAAAAAAAAAAAAAAAAAAAAAAAAAAAAAAAAAAAAAAAAAAAAAAAAAAAAAAAAAAAAAAAAAAAAAAAAAAAAAAAAAAAAAAAAAAAAAAAAAAAAAAAAAAAAAAAAAAAAAAAAAAAAAAAAAAAAAAAAAAAAAAAAAAAAAAAAAAAAAAAAAAAAAAAAAAAAAAAAAAAAAAAAAAAAAAAAAAAAAAAAAAAAAAAAAAAAAAAAAAAAAAAAAAAAAAAAAAAAAAAAAAAAAAAAAAAAAAAAAAAAAAAAAAAAAAAAAAAAAAAAAAAAAAAAAAAAAAAAAAAAAAAAAAAAAAAAAAAAAAAAAAAAAAAAAAAAAAAAAAAAAAAAAAAAAAAAAAAAAAAAAAAAAAAAAAAAAAAAAAAAAAAAAAAAAAAAAAAAAAAAAAAAAAAAAAAAAAAAAAAAAAAAAAAAAAAAAAAAAAAAAAAAAAAAAAAAAAAAAAAAAAAAAAAAAAAAAAAAAAAAAAAAAAAAAAAAAAAAAAAAAAAAAAAAAAAAAAAAAAAAAAAAAAAAAAAAAAAAAAAAAAAAAAAAAAAAAAAAAAAAAAAAAAAAAAAAAAAAAAAAAAAAAAAAAAAAAAAAAAAAAAAAAAAAAAAAAAAAAAAAAAAAAAAAAAAAAAAAAAAAAAAAAAAAAAAAAAAAAAAAAAAAAAAAAAAAAAAAAAAAAAAAAAAAAAAAAAAAAAAAAAAAAAAAAAAAAAAAAAAAAAAAAAAAAAAAAAAAAAAAAAAAAAAAAAAAAAAAAAAAAAAAAAAAAAAAAAAAAAAAAAAAAAAAAAAAAAAAAAAAAAAAAAAAAAAAAAAAAAAAAAAAAAAAAAAAAAAAAAAAAAAAAAAAAAAAAAAAAAAAAAAAAAAAAAAAAAAAAAAAAAAAAAAAAAAAAAAAAAAAAAAAAAAAAAAAAAAAAAAAAAAAAAAAAAAAAAAAAAAAAAAAAAAAAAAAAAAAAAAAAAAAAAAAAAAAAAAAAAAAAAAAAAAAAAAAAAAAAAAAAAAAAAAAAAAAAAAAAAAAAAAAAAAAAAAAAAAAAAAAAAAAAAAAAAAAAAAAAAAAAAAAAAAAAAAAAAAAAAAAAAAPZYQGcCV4Dmuj7ZKKlJzITNqPsZ0pMif0UgE+TPspjSIFXbfOgyIHbpszQm1k8cvlGx21ANZN+HHYmgvtHanRQpopc=</c2pa:manifest></metadata>
  <style>
    text { font-family: "JetBrains Mono", "Fira Code", "SF Mono", "Cascadia Code", Consolas, "DejaVu Sans Mono", monospace; font-size: 14px; white-space: pre; }
    .art { font-size: 13px; letter-spacing: 0; }
  </style>
  <rect width="1172" height="618" fill="#0d1117"/>
  <rect x="10" y="10" width="1152" height="598" rx="12" fill="#161b22" stroke="#30363d"/>
    <text x="461.2 469.0" y="133" font-size="13" fill="#4fa32a" xml:space="preserve">$#</text>
  <text x="476.8" y="133" font-size="13" fill="#2f6b1c" xml:space="preserve">#</text>
  <text x="445.6 453.4" y="147" font-size="13" fill="#4fa32a" xml:space="preserve">8$</text>
  <text x="461.2" y="147" font-size="13" fill="#2f6b1c" xml:space="preserve">%</text>
  <text x="422.2 430.0 437.8" y="161" font-size="13" fill="#4fa32a" xml:space="preserve">#%8</text>
  <text x="445.6 453.4" y="161" font-size="13" fill="#2f6b1c" xml:space="preserve">8%</text>
  <text x="367.6 375.4 383.2 391.0 398.8 406.6 414.4 422.2 430.0 437.8 445.6" y="175" font-size="13" fill="#4fa32a" xml:space="preserve">8$#%8$#%8$#</text>
  <text x="453.4 461.2 469.0 476.8" y="175" font-size="13" fill="#2f6b1c" xml:space="preserve">#&amp;8%</text>
  <text x="391.0 398.8 406.6 414.4 422.2 430.0 437.8 445.6 453.4 461.2" y="189" font-size="13" fill="#8f3227" xml:space="preserve">8%@#8%@#8%</text>
  <text x="359.8 367.6 375.4 383.2" y="203" font-size="13" fill="#8f3227" xml:space="preserve">%@#8</text>
  <text x="391.0 398.8" y="203" font-size="13" fill="#f79b8a" xml:space="preserve">0O</text>
  <text x="406.6 414.4" y="203" font-size="13" fill="#e8402a" xml:space="preserve">89</text>
  <text x="422.2 430.0" y="203" font-size="13" fill="#f79b8a" xml:space="preserve">*0</text>
  <text x="437.8 445.6 453.4 461.2" y="203" font-size="13" fill="#e8402a" xml:space="preserve">@%89</text>
  <text x="469.0 476.8" y="203" font-size="13" fill="#8f3227" xml:space="preserve">#8</text>
  <text x="336.4 344.2 352.0" y="217" font-size="13" fill="#8f3227" xml:space="preserve">#8%</text>
  <text x="359.8 367.6" y="217" font-size="13" fill="#f79b8a" xml:space="preserve">3o</text>
  <text x="375.4 383.2 391.0 398.8 406.6 414.4 422.2 430.0 437.8 445.6 453.4 461.2" y="217" font-size="13" fill="#e8402a" xml:space="preserve">90&amp;@%890&amp;@%8</text>
  <text x="469.0 476.8" y="217" font-size="13" fill="#8f3227" xml:space="preserve">8%</text>
  <text x="320.8 328.6 336.4" y="231" font-size="13" fill="#8f3227" xml:space="preserve">@#8</text>
  <text x="344.2 352.0" y="231" font-size="13" fill="#f79b8a" xml:space="preserve">O3</text>
  <text x="359.8 367.6 375.4 383.2 391.0 398.8 406.6 414.4 422.2 430.0 437.8 445.6 453.4 461.2 469.0" y="231" font-size="13" fill="#e8402a" xml:space="preserve">@%890&amp;@%890&amp;@%8</text>
  <text x="476.8" y="231" font-size="13" fill="#8f3227" xml:space="preserve">@</text>
  <text x="297.4 305.2 313.0" y="245" font-size="13" fill="#8f3227" xml:space="preserve">8%@</text>
  <text x="320.8 328.6" y="245" font-size="13" fill="#f79b8a" xml:space="preserve">*0</text>
  <text x="336.4 344.2 352.0 359.8 367.6 375.4 383.2 391.0 398.8 406.6 414.4 422.2 430.0 437.8 445.6 453.4 461.2" y="245" font-size="13" fill="#e8402a" xml:space="preserve">890&amp;@%890&amp;@%890&amp;@</text>
  <text x="469.0 476.8" y="245" font-size="13" fill="#8f3227" xml:space="preserve">@#</text>
  <text x="281.8 289.6 297.4" y="259" font-size="13" fill="#8f3227" xml:space="preserve">#8%</text>
  <text x="305.2 313.0" y="259" font-size="13" fill="#f79b8a" xml:space="preserve">o*</text>
  <text x="320.8 328.6 336.4 344.2 352.0 359.8 367.6 375.4 383.2 391.0 398.8 406.6 414.4 422.2 430.0 437.8 445.6 453.4" y="259" font-size="13" fill="#e8402a" xml:space="preserve">&amp;@%890&amp;@%890&amp;@%890</text>
  <text x="461.2 469.0" y="259" font-size="13" fill="#8f3227" xml:space="preserve">@#</text>
  <text x="266.2 274.0" y="273" font-size="13" fill="#8f3227" xml:space="preserve">@#</text>
  <text x="281.8 289.6" y="273" font-size="13" fill="#f79b8a" xml:space="preserve">O3</text>
  <text x="297.4 305.2 313.0 320.8 328.6 336.4 344.2 352.0 359.8 367.6 375.4 383.2 391.0 398.8 406.6 414.4 422.2 430.0 437.8 445.6" y="273" font-size="13" fill="#e8402a" xml:space="preserve">%890&amp;@%890&amp;@%890&amp;@%8</text>
  <text x="453.4 461.2" y="273" font-size="13" fill="#8f3227" xml:space="preserve">@#</text>
  <text x="250.6 258.4" y="287" font-size="13" fill="#8f3227" xml:space="preserve">%@</text>
  <text x="266.2 274.0" y="287" font-size="13" fill="#f79b8a" xml:space="preserve">0O</text>
  <text x="281.8 289.6 297.4 305.2 313.0 320.8 328.6 336.4 344.2 352.0 359.8 367.6 375.4 383.2 391.0 398.8 406.6 414.4 422.2 430.0" y="287" font-size="13" fill="#e8402a" xml:space="preserve">0&amp;@%890&amp;@%890&amp;@%890&amp;</text>
  <text x="437.8 445.6" y="287" font-size="13" fill="#8f3227" xml:space="preserve">%@</text>
  <text x="227.2 235.0 242.8" y="301" font-size="13" fill="#8f3227" xml:space="preserve">#8%</text>
  <text x="250.6 258.4" y="301" font-size="13" fill="#f79b8a" xml:space="preserve">*0</text>
  <text x="266.2 274.0 281.8 289.6 297.4 305.2 313.0 320.8 328.6 336.4 344.2 352.0 359.8 367.6 375.4 383.2 391.0 398.8 406.6 414.4" y="301" font-size="13" fill="#e8402a" xml:space="preserve">%890&amp;@%890&amp;@%890&amp;@%8</text>
  <text x="422.2 430.0" y="301" font-size="13" fill="#8f3227" xml:space="preserve">8%</text>
  <text x="211.6 219.4 227.2" y="315" font-size="13" fill="#8f3227" xml:space="preserve">@#8</text>
  <text x="235.0 242.8" y="315" font-size="13" fill="#f79b8a" xml:space="preserve">o*</text>
  <text x="250.6 258.4 266.2 274.0 281.8 289.6 297.4 305.2 313.0 320.8 328.6 336.4 344.2 352.0 359.8 367.6 375.4 383.2 391.0" y="315" font-size="13" fill="#e8402a" xml:space="preserve">0&amp;@%890&amp;@%890&amp;@%890</text>
  <text x="398.8 406.6 414.4" y="315" font-size="13" fill="#8f3227" xml:space="preserve">@#8</text>
  <text x="196.0 203.8" y="329" font-size="13" fill="#8f3227" xml:space="preserve">%@</text>
  <text x="211.6 219.4" y="329" font-size="13" fill="#f79b8a" xml:space="preserve">O3</text>
  <text x="227.2 235.0 242.8 250.6 258.4 266.2 274.0 281.8 289.6 297.4 305.2 313.0 320.8 328.6 336.4 344.2 352.0 359.8 367.6" y="329" font-size="13" fill="#e8402a" xml:space="preserve">@%890&amp;@%890&amp;@%890&amp;@</text>
  <text x="375.4 383.2 391.0" y="329" font-size="13" fill="#8f3227" xml:space="preserve">8%@</text>
  <text x="172.6 180.4 188.2" y="343" font-size="13" fill="#8f3227" xml:space="preserve">#8%</text>
  <text x="196.0 203.8" y="343" font-size="13" fill="#f79b8a" xml:space="preserve">0O</text>
  <text x="211.6 219.4 227.2 235.0 242.8 250.6 258.4 266.2 274.0 281.8 289.6 297.4 305.2 313.0 320.8 328.6 336.4 344.2" y="343" font-size="13" fill="#e8402a" xml:space="preserve">90&amp;@%890&amp;@%890&amp;@%8</text>
  <text x="352.0 359.8 367.6" y="343" font-size="13" fill="#8f3227" xml:space="preserve">@#8</text>
  <text x="157.0 164.8 172.6" y="357" font-size="13" fill="#8f3227" xml:space="preserve">@#8</text>
  <text x="180.4 188.2" y="357" font-size="13" fill="#f79b8a" xml:space="preserve">*0</text>
  <text x="196.0 203.8 211.6 219.4 227.2 235.0 242.8 250.6 258.4 266.2 274.0 281.8 289.6 297.4 305.2 313.0" y="357" font-size="13" fill="#e8402a" xml:space="preserve">@%890&amp;@%890&amp;@%89</text>
  <text x="320.8 328.6 336.4 344.2" y="357" font-size="13" fill="#8f3227" xml:space="preserve">#8%@</text>
  <text x="133.6 141.4 149.2" y="371" font-size="13" fill="#8f3227" xml:space="preserve">8%@</text>
  <text x="157.0 164.8" y="371" font-size="13" fill="#f79b8a" xml:space="preserve">3o</text>
  <text x="172.6 180.4 188.2 196.0 203.8 211.6 219.4 227.2 235.0 242.8 250.6 258.4 266.2 274.0 281.8" y="371" font-size="13" fill="#e8402a" xml:space="preserve">890&amp;@%890&amp;@%890</text>
  <text x="289.6 297.4 305.2 313.0" y="371" font-size="13" fill="#8f3227" xml:space="preserve">8%@#</text>
  <text x="118.0 125.8" y="385" font-size="13" fill="#8f3227" xml:space="preserve">#8</text>
  <text x="133.6 141.4" y="385" font-size="13" fill="#f79b8a" xml:space="preserve">0O</text>
  <text x="149.2 157.0 164.8 172.6 180.4 188.2 196.0 203.8 211.6 219.4 227.2 235.0 242.8 250.6" y="385" font-size="13" fill="#e8402a" xml:space="preserve">0&amp;@%890&amp;@%890&amp;</text>
  <text x="258.4 266.2 274.0 281.8" y="385" font-size="13" fill="#8f3227" xml:space="preserve">%@#8</text>
  <text x="94.6 102.4 110.2" y="399" font-size="13" fill="#8f3227" xml:space="preserve">%@#</text>
  <text x="118.0 125.8" y="399" font-size="13" fill="#f79b8a" xml:space="preserve">*0</text>
  <text x="133.6 141.4 149.2 157.0 164.8 172.6 180.4 188.2 196.0 203.8 211.6" y="399" font-size="13" fill="#e8402a" xml:space="preserve">%890&amp;@%890&amp;</text>
  <text x="219.4 227.2 235.0 242.8 250.6" y="399" font-size="13" fill="#8f3227" xml:space="preserve">%@#8%</text>
  <text x="86.8 94.6" y="413" font-size="13" fill="#8f3227" xml:space="preserve">%@</text>
  <text x="102.4 110.2" y="413" font-size="13" fill="#f79b8a" xml:space="preserve">o*</text>
  <text x="118.0 125.8 133.6 141.4 149.2 157.0 164.8" y="413" font-size="13" fill="#e8402a" xml:space="preserve">0&amp;@%890</text>
  <text x="172.6 180.4 188.2 196.0 203.8 211.6" y="413" font-size="13" fill="#8f3227" xml:space="preserve">8%@#8%</text>
  <text x="94.6 102.4 110.2 118.0 125.8 133.6 141.4 149.2 157.0" y="427" font-size="13" fill="#8f3227" xml:space="preserve">#8%@#8%@#</text>
  <text x="548" y="74" xml:space="preserve"><tspan fill="#c9d1d9" font-weight="bold">moujan@mirjalili</tspan><tspan fill="#484f58"> -----------------------------------------------------</tspan></text>
  <text x="548" y="118" xml:space="preserve"><tspan fill="#ffa657">  Uptime: </tspan><tspan fill="#484f58">.........................................</tspan><tspan fill="#79c0ff"> 25 years, 9 months</tspan></text>
  <text x="548" y="140" xml:space="preserve"><tspan fill="#ffa657">  Host: </tspan><tspan fill="#484f58">.........................</tspan><tspan fill="#79c0ff"> Georg-August-Universitaet Goettingen</tspan></text>
  <text x="548" y="162" xml:space="preserve"><tspan fill="#ffa657">  Kernel: </tspan><tspan fill="#484f58">.................................</tspan><tspan fill="#79c0ff"> M.Sc. Applied Data Science</tspan></text>
  <text x="548" y="184" xml:space="preserve"><tspan fill="#ffa657">  Shell: </tspan><tspan fill="#484f58">.........................................</tspan><tspan fill="#79c0ff"> SUB Goettingen, R&amp;D</tspan></text>
  <text x="548" y="228" xml:space="preserve"><tspan fill="#ffa657">  Languages.Programming: </tspan><tspan fill="#484f58">............</tspan><tspan fill="#79c0ff"> Python, Java, C, C++, JavaScript</tspan></text>
  <text x="548" y="250" xml:space="preserve"><tspan fill="#ffa657">  Languages.Computer: </tspan><tspan fill="#484f58">...................</tspan><tspan fill="#79c0ff"> HTML, CSS, JSON, LaTeX, YAML</tspan></text>
  <text x="548" y="272" xml:space="preserve"><tspan fill="#ffa657">  Languages.Real: </tspan><tspan fill="#484f58">...........................</tspan><tspan fill="#79c0ff"> Persian, English, German</tspan></text>
  <text x="548" y="294" xml:space="preserve"><tspan fill="#ffa657">  Frameworks: </tspan><tspan fill="#484f58">...............</tspan><tspan fill="#79c0ff"> PyTorch, Transformers, TensorFlow, Keras</tspan></text>
  <text x="548" y="316" xml:space="preserve"><tspan fill="#ffa657">  Libraries: </tspan><tspan fill="#484f58">.....................</tspan><tspan fill="#79c0ff"> scikit-learn, pandas, NumPy, Phaser</tspan></text>
  <text x="548" y="360" xml:space="preserve"><tspan fill="#ffa657">  Research.Focus: </tspan><tspan fill="#484f58">..................</tspan><tspan fill="#79c0ff"> NLP, Media Bias, Interpretability</tspan></text>
  <text x="548" y="382" xml:space="preserve"><tspan fill="#ffa657">  Research.Thesis: </tspan><tspan fill="#484f58">..............</tspan><tspan fill="#79c0ff"> Definitional sensitivity in LLM data</tspan></text>
  <text x="548" y="404" xml:space="preserve"><tspan fill="#ffa657">  Research.Also: </tspan><tspan fill="#484f58">...............</tspan><tspan fill="#79c0ff"> LRM perception under refusal steering</tspan></text>
  <text x="548" y="426" xml:space="preserve"><tspan fill="#ffa657">  Research.Also: </tspan><tspan fill="#484f58">.................................</tspan><tspan fill="#79c0ff"> Book classification</tspan></text>
  <text x="548" y="470" xml:space="preserve"><tspan fill="#484f58">- </tspan><tspan fill="#c9d1d9" font-weight="bold">Contact</tspan><tspan fill="#484f58"> -----------------------------------------------------------</tspan></text>
  <text x="548" y="492" xml:space="preserve"><tspan fill="#ffa657">  Email.Personal: </tspan><tspan fill="#484f58">..........................</tspan><tspan fill="#79c0ff"> moujanmirjalili@gmail.com</tspan></text>
  <text x="548" y="514" xml:space="preserve"><tspan fill="#ffa657">  Email.Uni: </tspan><tspan fill="#484f58">.................</tspan><tspan fill="#79c0ff"> moujan.mirjalili@stud.uni-goettingen.de</tspan></text>
  <text x="548" y="536" xml:space="preserve"><tspan fill="#ffa657">  Email.Work: </tspan><tspan fill="#484f58">.................</tspan><tspan fill="#79c0ff"> moujan.mirjalili@sub.uni-goettingen.de</tspan></text>
  <text x="548" y="558" xml:space="preserve"><tspan fill="#ffa657">  Website: </tspan><tspan fill="#484f58">.................................</tspan><tspan fill="#79c0ff"> moujanmirjalili.github.io</tspan></text>
  <text x="548" y="580" xml:space="preserve"><tspan fill="#ffa657">  LinkedIn: </tspan><tspan fill="#484f58">..........................</tspan><tspan fill="#79c0ff"> linkedin.com/in/moujanmirjalili</tspan></text>
</svg>
